# xmcd
#
# Track frame offsets: 
#        150
#        16615
#        34251
#        51158
#        70312
#        86581
#        101948
#        116625
#        133754
#        149913
#        168043
#        186478
#        201805
#        219090
#        234641
#        252193
#
# Disc length: 3574 seconds
#
# Revision: 0
# Processed by: cddbd v1.5.2PL0 Copyright (c) Steve Scherf et al.
# Submitted via: ExactAudioCopy v1.0b2
#
DISCID=eb0df410
DTITLE=Darius Rucker - Charleston, sc 1966
DYEAR=2008
DGENRE=Country
TTITLE0=This
TTITLE1=Come Back Song
TTITLE2=Might Geth Lucky
TTITLE3=Whiskey And You
TTITLE4=Southern State Of Mind
TTITLE5=Love Will Do That
TTITLE6=The Craziest Thing
TTITLE7=Things I`D Never Do
TTITLE8=We All Fall Down
TTITLE9=I Don`T Care (Featuring Brad Paisley)
TTITLE10=She`s Beautiful
TTITLE11=I Got Nothin
TTITLE12=In A Big Way
TTITLE13=This (Remix)
TTITLE14=Alright
TTITLE15=History In The Making
EXTD=
EXTT0=
EXTT1=
EXTT2=
EXTT3=
EXTT4=
EXTT5=
EXTT6=
EXTT7=
EXTT8=
EXTT9=
EXTT10=
EXTT11=
EXTT12=
EXTT13=
EXTT14=
EXTT15=
PLAYORDER=
